<svg fill="none" xmlns="http://www.w3.org/2000/svg" viewBox="0 0 220.31 149.89">
  <g clip-path="url(#clip0)">
    <path
      d="M140.51 53.16C140.505 50.9578 140.06 48.7787 139.201 46.7507C138.343 44.7227 137.088 42.8865 135.51 41.35C132.301 38.2171 127.995 36.4623 123.51 36.46H99.15C94.6649 36.4601 90.3578 38.2153 87.15 41.35C85.1908 43.2889 83.7449 45.685 82.9427 48.3221C82.1405 50.9592 82.0073 53.7545 82.5549 56.456C83.1025 59.1575 84.3139 61.6802 86.0797 63.7968C87.8456 65.9133 90.1104 67.5571 92.67 68.58C94.7367 69.4242 96.9476 69.8589 99.18 69.86H123.5C127.987 69.8594 132.295 68.1003 135.5 64.96C137.079 63.4262 138.336 61.5922 139.196 59.5658C140.057 57.5394 140.503 55.3615 140.51 53.16V53.16ZM97.23 60.83C95.6869 60.8332 94.1772 60.381 92.89 59.53C91.6041 58.6985 90.5973 57.5001 90 56.09C89.4065 54.6924 89.253 53.1471 89.56 51.66C89.8629 50.1672 90.6046 48.7987 91.69 47.73C92.7937 46.6529 94.1882 45.9219 95.702 45.6269C97.2157 45.332 98.7827 45.486 100.21 46.07C101.63 46.6474 102.848 47.632 103.71 48.9C104.712 50.3723 105.161 52.1513 104.978 53.9226C104.795 55.6939 103.991 57.3436 102.71 58.58C101.985 59.2959 101.125 59.8602 100.18 60.24C99.2436 60.6241 98.2421 60.8244 97.23 60.83V60.83ZM125.42 60.83C123.877 60.8303 122.368 60.3783 121.08 59.53C119.803 58.691 118.801 57.4946 118.2 56.09C117.611 54.6911 117.458 53.1473 117.76 51.66C118.067 50.1664 118.812 48.7982 119.9 47.73C121 46.6546 122.39 45.9246 123.9 45.63C125.414 45.339 126.981 45.4918 128.41 46.07C129.835 46.6441 131.057 47.6293 131.92 48.9C132.776 50.1556 133.233 51.6405 133.23 53.16C133.234 54.1666 133.034 55.1636 132.64 56.09C132.261 57.0191 131.704 57.865 131 58.58C129.516 60.0155 127.535 60.8217 125.47 60.83H125.42Z"
      fill="#555454"></path>
    <path
      d="M140.56 82.43C145.302 77.8933 148.883 72.282 151 66.07C153.083 59.8866 153.636 53.2905 152.612 46.8466C151.588 40.4027 149.017 34.303 145.12 29.07C141.181 23.7811 136.039 19.5065 130.12 16.6C130.84 15.41 132.32 12.87 133.66 10.6C133.989 10.6702 134.324 10.7071 134.66 10.71C135.84 10.7017 136.983 10.3005 137.91 9.57001C138.825 8.8509 139.46 7.83525 139.707 6.69805C139.953 5.56084 139.795 4.3733 139.26 3.34001C138.716 2.30143 137.834 1.47949 136.76 1.01001C135.679 0.537288 134.471 0.442178 133.33 0.740013C132.193 1.03356 131.191 1.70761 130.49 2.65001C129.799 3.58128 129.452 4.72398 129.511 5.88243C129.569 7.04087 130.028 8.14299 130.81 9.00001C129.2 11.76 127.62 14.46 127.12 15.27C116.981 11.2102 105.669 11.2102 95.53 15.27C95.03 14.43 93.45 11.76 91.84 9.00001C92.6267 8.14161 93.0891 7.03556 93.1475 5.87266C93.206 4.70976 92.8567 3.56294 92.16 2.63001C91.4657 1.67071 90.4632 0.97882 89.32 0.670013C88.1754 0.372215 86.9641 0.467295 85.88 0.940013C84.8104 1.41272 83.9326 2.23409 83.39 3.27001C82.8533 4.30344 82.6942 5.49178 82.94 6.63001C83.1952 7.76917 83.8342 8.78598 84.75 9.51001C85.6741 10.2439 86.8199 10.6423 88 10.64C88.3362 10.6378 88.6713 10.6009 89 10.53C90.33 12.82 91.82 15.35 92.54 16.53C86.5178 19.4946 81.3052 23.8767 77.35 29.3C73.4272 34.6597 70.8867 40.904 69.9535 47.48C69.0204 54.056 69.7233 60.7606 72 67C74.3015 73.2823 78.1055 78.9058 83.08 83.38L81.36 89.6C81.2195 90.1462 81.2509 90.7224 81.45 91.25C81.5979 91.6484 81.8318 92.0092 82.1351 92.3068C82.4383 92.6044 82.8035 92.8315 83.2046 92.9719C83.6056 93.1123 84.0327 93.1625 84.4554 93.1189C84.8781 93.0754 85.286 92.9392 85.65 92.72L91.49 89.19C96.4168 91.7917 101.808 93.3958 107.356 93.9106C112.904 94.4254 118.499 93.8407 123.82 92.19L136.08 102.66C136.666 103.163 137.39 103.476 138.157 103.56C138.925 103.644 139.699 103.494 140.38 103.13C141.048 102.785 141.598 102.249 141.96 101.59C142.312 100.935 142.455 100.188 142.37 99.45L140.56 82.43ZM138.77 99.88C138.785 99.9187 138.785 99.9613 138.77 100C138.75 100.036 138.718 100.064 138.68 100.08C138.641 100.09 138.599 100.09 138.56 100.08C138.517 100.09 138.473 100.09 138.43 100.08L124.65 88.34L123.65 88.67C118.512 90.3813 113.073 90.9985 107.683 90.4818C102.292 89.9652 97.0692 88.3261 92.35 85.67L91.43 85.15L85.36 88.79L87.18 82.21L86.32 81.48C80.4906 76.5598 76.3037 69.9759 74.32 62.61C72.3608 55.2801 72.71 47.5242 75.32 40.4C78.0003 33.2464 82.7966 27.0793 89.07 22.72C95.3767 18.2985 102.857 15.8546 110.557 15.6996C118.258 15.5447 125.831 17.6857 132.31 21.85C138.728 25.9798 143.743 31.9599 146.69 39C149.599 46.0045 150.28 53.7349 148.64 61.14C146.98 68.5801 143.087 75.3352 137.48 80.5L136.83 81.1L138.77 99.88Z"
      fill="#54A4C1" stroke="#54A4C1"></path>
    <path
      d="M10.06 141.83C10.1261 140.586 9.81216 139.351 9.16 138.29C8.84883 137.852 8.42873 137.502 7.9412 137.276C7.45366 137.05 6.91555 136.955 6.38 137C5.81969 136.999 5.26272 137.086 4.73 137.26C4.3005 137.401 3.89058 137.596 3.51 137.84V146.57C3.76333 146.63 4.09667 146.69 4.51 146.75C4.91 146.75 5.4 146.8 5.96 146.8C6.52566 146.823 7.08924 146.718 7.6087 146.493C8.12816 146.268 8.59008 145.929 8.96 145.5C9.75147 144.446 10.1415 143.145 10.06 141.83V141.83ZM13.66 141.83C13.6771 142.957 13.4908 144.079 13.11 145.14C12.7847 146.073 12.2591 146.922 11.57 147.63C10.8973 148.338 10.0735 148.885 9.16 149.23C8.13058 149.613 7.03831 149.8 5.94 149.78C4.82486 149.782 3.71134 149.695 2.61 149.52C1.73069 149.397 0.859234 149.224 0 149L0 127.53L3.51 127V134.86C3.9833 134.599 4.48269 134.387 5 134.23C5.65159 134.055 6.32562 133.977 7 134C7.97792 133.981 8.94791 134.179 9.84 134.58C10.6671 134.927 11.3955 135.473 11.96 136.17C12.5434 136.919 12.9748 137.775 13.23 138.69C13.5361 139.725 13.6812 140.801 13.66 141.88V141.83ZM30.99 141.83C31.0059 142.945 30.83 144.055 30.47 145.11C30.1609 146.049 29.6604 146.914 29 147.65C28.3533 148.354 27.5618 148.91 26.68 149.28C24.7858 150.053 22.6642 150.053 20.77 149.28C19.897 148.905 19.1132 148.349 18.47 147.65C17.809 146.917 17.2993 146.061 16.97 145.13C16.6066 144.075 16.4273 142.966 16.44 141.85C16.4263 140.747 16.6056 139.651 16.97 138.61C17.3016 137.678 17.8111 136.818 18.47 136.08C19.1252 135.395 19.9152 134.854 20.79 134.49C22.6668 133.717 24.7732 133.717 26.65 134.49C27.5423 134.838 28.3453 135.381 29 136.08C29.6595 136.814 30.163 137.675 30.48 138.61C30.8504 139.649 31.0267 140.747 31 141.85L30.99 141.83ZM27.4 141.83C27.4662 140.566 27.1148 139.315 26.4 138.27C26.0985 137.838 25.6931 137.489 25.2213 137.255C24.7495 137.021 24.2263 136.909 23.7 136.93C23.1724 136.915 22.6494 137.031 22.178 137.269C21.7067 137.506 21.3018 137.857 21 138.29C20.2938 139.339 19.9432 140.587 20 141.85C19.9429 143.135 20.2929 144.405 21 145.48C21.3071 145.91 21.7166 146.257 22.1916 146.49C22.6665 146.722 23.1918 146.832 23.72 146.81C24.2456 146.833 24.7684 146.723 25.2404 146.491C25.7123 146.258 26.118 145.911 26.42 145.48C27.1272 144.406 27.4707 143.134 27.4 141.85V141.83ZM34.4 130.26L37.91 129.68V134.27H43.31V137.19H37.91V143.37C37.8363 144.279 38.0385 145.188 38.49 145.98C38.7353 146.262 39.0455 146.481 39.3939 146.616C39.7423 146.752 40.1184 146.802 40.49 146.76C41.0599 146.772 41.6286 146.704 42.18 146.56C42.5814 146.46 42.9756 146.333 43.36 146.18L43.94 148.97C43.4234 149.182 42.892 149.356 42.35 149.49C41.594 149.694 40.8131 149.792 40.03 149.78C39.1012 149.807 38.1756 149.661 37.3 149.35C36.6312 149.089 36.042 148.658 35.59 148.1C35.1541 147.503 34.8476 146.822 34.69 146.1C34.5094 145.212 34.4223 144.307 34.43 143.4L34.4 130.26ZM55.8 149.87C54.4348 149.887 53.0783 149.65 51.8 149.17C50.6437 148.745 49.6003 148.061 48.75 147.17C47.8915 146.214 47.2411 145.09 46.84 143.87C46.3696 142.428 46.1432 140.917 46.17 139.4C46.143 137.877 46.3973 136.361 46.92 134.93C47.3846 133.707 48.0922 132.592 49 131.65C49.8807 130.743 50.949 130.04 52.13 129.59C53.3613 129.116 54.6708 128.879 55.99 128.89C56.748 128.885 57.5047 128.952 58.25 129.09C58.8474 129.192 59.4384 129.329 60.02 129.5C60.4506 129.625 60.869 129.789 61.27 129.99L61.96 130.37L60.89 133.37C60.263 133.011 59.5902 132.738 58.89 132.56C57.991 132.276 57.0526 132.138 56.11 132.15C55.2742 132.14 54.4448 132.297 53.67 132.61C52.9077 132.894 52.2227 133.353 51.67 133.95C51.0903 134.606 50.6542 135.376 50.39 136.21C50.0648 137.231 49.9094 138.299 49.93 139.37C49.9195 140.357 50.0337 141.342 50.27 142.3C50.5002 143.138 50.887 143.926 51.41 144.62C51.9203 145.265 52.5744 145.782 53.32 146.13C54.1991 146.499 55.1469 146.676 56.1 146.65C57.1662 146.678 58.2308 146.55 59.26 146.27C59.9078 146.067 60.5395 145.817 61.15 145.52L62.15 148.52C61.8309 148.703 61.4963 148.856 61.15 148.98C60.76 149.13 60.3 149.29 59.76 149.44C59.1577 149.587 58.5464 149.694 57.93 149.76C57.2339 149.853 56.5322 149.896 55.83 149.89L55.8 149.87ZM78.54 141.87C78.5559 142.985 78.38 144.095 78.02 145.15C77.7054 146.083 77.2016 146.941 76.54 147.67C75.8933 148.374 75.1018 148.93 74.22 149.3C72.3225 150.074 70.1975 150.074 68.3 149.3C67.4246 148.92 66.6404 148.358 66 147.65C65.3359 146.917 64.8228 146.061 64.49 145.13C64.1351 144.073 63.9593 142.965 63.97 141.85C63.9581 140.748 64.1339 139.653 64.49 138.61C64.8251 137.677 65.3379 136.818 66 136.08C66.6535 135.393 67.4439 134.852 68.32 134.49C70.1968 133.717 72.3032 133.717 74.18 134.49C75.0615 134.842 75.8539 135.385 76.5 136.08C77.1667 136.813 77.6771 137.674 78 138.61C78.3874 139.646 78.5807 140.744 78.57 141.85L78.54 141.87ZM74.94 141.87C75.0062 140.606 74.6549 139.355 73.94 138.31C73.6385 137.878 73.2331 137.529 72.7613 137.295C72.2895 137.061 71.7663 136.949 71.24 136.97C70.7109 136.949 70.185 137.061 69.71 137.295C69.235 137.529 68.826 137.878 68.52 138.31C67.8138 139.359 67.4632 140.607 67.52 141.87C67.4629 143.155 67.8129 144.425 68.52 145.5C68.8271 145.93 69.2366 146.277 69.7116 146.51C70.1865 146.742 70.7118 146.852 71.24 146.83C71.7656 146.853 72.2884 146.743 72.7604 146.511C73.2323 146.278 73.638 145.931 73.94 145.5C74.6795 144.43 75.0515 143.149 75 141.85L74.94 141.87ZM90.8 141.5C90.8851 140.327 90.6754 139.151 90.19 138.08C89.9649 137.711 89.6395 137.413 89.2518 137.222C88.864 137.031 88.4299 136.954 88 137C87.5752 137.003 87.151 137.033 86.73 137.09L85.73 137.23V149.47H82.23V134.78C83.094 134.541 83.9725 134.357 84.86 134.23C85.9988 134.062 87.1491 133.985 88.3 134C89.171 133.969 90.0399 134.105 90.86 134.4C91.4869 134.643 92.0583 135.011 92.54 135.48C92.7975 135.294 93.0682 135.127 93.35 134.98C93.7037 134.797 94.0716 134.644 94.45 134.52C94.8662 134.361 95.2942 134.233 95.73 134.14C96.187 134.044 96.653 133.997 97.12 134C98.1128 133.963 99.102 134.14 100.02 134.52C100.743 134.812 101.368 135.304 101.82 135.94C102.284 136.595 102.591 137.348 102.72 138.14C102.899 139.069 102.986 140.014 102.98 140.96V149.48H99.47V141.48C99.5515 140.31 99.3527 139.138 98.89 138.06C98.6575 137.69 98.3243 137.393 97.9293 137.205C97.5343 137.018 97.094 136.946 96.66 137C96.1135 136.999 95.5713 137.097 95.06 137.29C94.6643 137.419 94.285 137.593 93.93 137.81C94.0845 138.312 94.1917 138.828 94.25 139.35C94.312 139.928 94.342 140.509 94.34 141.09V149.47H90.83L90.8 141.5ZM115.89 141.5C115.975 140.327 115.765 139.151 115.28 138.08C115.055 137.708 114.728 137.409 114.338 137.218C113.948 137.026 113.512 136.951 113.08 137C112.652 137.003 112.224 137.033 111.8 137.09L110.8 137.23V149.47H107.29V134.78C108.157 134.54 109.039 134.356 109.93 134.23C111.081 134.049 112.245 133.963 113.41 133.97C114.278 133.94 115.143 134.076 115.96 134.37C116.59 134.607 117.162 134.975 117.64 135.45C117.897 135.264 118.168 135.097 118.45 134.95C118.804 134.767 119.172 134.614 119.55 134.49C119.967 134.332 120.395 134.205 120.83 134.11C121.287 134.014 121.753 133.967 122.22 133.97C123.213 133.933 124.202 134.11 125.12 134.49C125.846 134.778 126.471 135.271 126.92 135.91C127.384 136.565 127.691 137.318 127.82 138.11C127.999 139.039 128.086 139.984 128.08 140.93V149.45H124.57V141.45C124.652 140.28 124.453 139.108 123.99 138.03C123.761 137.655 123.429 137.354 123.034 137.162C122.638 136.971 122.196 136.897 121.76 136.95C121.214 136.95 120.672 137.048 120.16 137.24C119.764 137.369 119.385 137.543 119.03 137.76C119.189 138.261 119.297 138.777 119.35 139.3C119.412 139.878 119.442 140.459 119.44 141.04V149.42H115.93L115.89 141.5ZM131.5 141.96C131.476 140.764 131.672 139.574 132.08 138.45C132.438 137.522 132.979 136.676 133.67 135.96C134.304 135.298 135.075 134.782 135.93 134.45C136.758 134.108 137.644 133.931 138.54 133.93C139.446 133.879 140.352 134.026 141.194 134.361C142.037 134.696 142.797 135.211 143.42 135.87C144.6 137.203 145.19 139.137 145.19 141.67C145.19 141.86 145.19 142.09 145.19 142.34C145.201 142.553 145.201 142.767 145.19 142.98H135.19C135.23 144.057 135.689 145.077 136.47 145.82C137.425 146.541 138.606 146.896 139.8 146.82C140.58 146.831 141.358 146.754 142.12 146.59C142.697 146.478 143.263 146.314 143.81 146.1L144.27 148.97C144.008 149.096 143.737 149.202 143.46 149.29C143.078 149.398 142.691 149.485 142.3 149.55C141.337 149.759 140.355 149.867 139.37 149.87C138.184 149.898 137.003 149.701 135.89 149.29C134.966 148.924 134.134 148.361 133.45 147.64C132.809 146.914 132.325 146.063 132.03 145.14C131.695 144.107 131.526 143.026 131.53 141.94L131.5 141.96ZM141.68 140.4C141.683 139.935 141.612 139.473 141.47 139.03C141.354 138.615 141.149 138.229 140.87 137.9C140.605 137.57 140.261 137.312 139.87 137.15C139.455 136.942 138.994 136.842 138.53 136.86C138.038 136.848 137.55 136.958 137.11 137.18C136.728 137.371 136.388 137.636 136.11 137.96C135.835 138.298 135.619 138.68 135.47 139.09C135.319 139.515 135.212 139.954 135.15 140.4H141.68ZM157.55 137.47C157.151 137.342 156.743 137.245 156.33 137.18C155.749 137.051 155.155 136.991 154.56 137C154.144 137.003 153.729 137.043 153.32 137.12C153.016 137.168 152.716 137.235 152.42 137.32V149.47H148.91V135C149.733 134.709 150.575 134.475 151.43 134.3C152.544 134.063 153.681 133.949 154.82 133.96C155.05 133.96 155.32 133.96 155.63 134.01C155.942 134.03 156.253 134.07 156.56 134.13C156.863 134.17 157.163 134.227 157.46 134.3C157.697 134.347 157.93 134.407 158.16 134.48L157.55 137.47ZM159.76 141.9C159.755 140.835 159.93 139.776 160.28 138.77C160.601 137.831 161.104 136.965 161.76 136.22C162.424 135.496 163.236 134.923 164.14 134.54C165.129 134.12 166.195 133.912 167.27 133.93C168.661 133.922 170.041 134.187 171.33 134.71L170.58 137.58C170.131 137.394 169.666 137.25 169.19 137.15C168.655 137.027 168.108 136.967 167.56 136.97C166.973 136.933 166.385 137.032 165.842 137.259C165.299 137.487 164.816 137.836 164.43 138.28C163.653 139.321 163.274 140.604 163.36 141.9C163.291 143.177 163.642 144.442 164.36 145.5C164.79 145.968 165.322 146.329 165.916 146.555C166.51 146.781 167.148 146.865 167.78 146.8C168.374 146.804 168.967 146.747 169.55 146.63C170.065 146.531 170.57 146.387 171.06 146.2L171.56 149.1C170.992 149.342 170.398 149.517 169.79 149.62C168.996 149.773 168.189 149.85 167.38 149.85C166.223 149.876 165.072 149.679 163.99 149.27C163.09 148.892 162.28 148.33 161.61 147.62C160.98 146.88 160.507 146.019 160.22 145.09C159.912 144.048 159.767 142.966 159.79 141.88L159.76 141.9ZM173.44 141.96C173.416 140.764 173.612 139.574 174.02 138.45C174.382 137.522 174.926 136.675 175.62 135.96C176.252 135.296 177.024 134.78 177.88 134.45C178.707 134.106 179.594 133.929 180.49 133.93C181.394 133.879 182.298 134.026 183.14 134.361C183.981 134.696 184.739 135.211 185.36 135.87C186.54 137.203 187.13 139.137 187.13 141.67C187.13 141.86 187.13 142.09 187.13 142.34C187.141 142.553 187.141 142.767 187.13 142.98H177.13C177.162 144.057 177.618 145.078 178.4 145.82C179.357 146.543 180.543 146.898 181.74 146.82C182.52 146.83 183.298 146.753 184.06 146.59C184.634 146.477 185.196 146.313 185.74 146.1L186.2 148.97C185.938 149.096 185.667 149.202 185.39 149.29C185.009 149.399 184.621 149.486 184.23 149.55C183.267 149.759 182.285 149.867 181.3 149.87C180.114 149.896 178.933 149.7 177.82 149.29C176.899 148.924 176.07 148.361 175.39 147.64C174.745 146.915 174.258 146.063 173.96 145.14C173.633 144.105 173.468 143.026 173.47 141.94L173.44 141.96ZM183.62 140.4C183.622 139.936 183.554 139.474 183.42 139.03C183.296 138.615 183.089 138.231 182.81 137.9C182.55 137.565 182.204 137.306 181.81 137.15C181.398 136.943 180.941 136.844 180.48 136.86C179.987 136.845 179.499 136.955 179.06 137.18C178.677 137.369 178.337 137.635 178.06 137.96C177.785 138.298 177.569 138.68 177.42 139.09C177.268 139.514 177.164 139.953 177.11 140.4H183.62Z"
      fill="#54A4C1"></path>
    <path
      d="M194.82 147.54C194.831 147.849 194.775 148.156 194.656 148.441C194.537 148.725 194.357 148.981 194.13 149.19C193.683 149.602 193.098 149.83 192.49 149.83C191.882 149.83 191.297 149.602 190.85 149.19C190.421 148.748 190.181 148.156 190.181 147.54C190.181 146.924 190.421 146.332 190.85 145.89C191.288 145.46 191.877 145.219 192.49 145.219C193.103 145.219 193.692 145.46 194.13 145.89C194.358 146.099 194.537 146.354 194.657 146.639C194.776 146.924 194.831 147.231 194.82 147.54V147.54ZM202.12 149.45H198.61V134.29H202.12V149.45ZM202.5 129.85C202.513 130.141 202.463 130.431 202.352 130.701C202.242 130.97 202.074 131.212 201.86 131.41C201.45 131.791 200.909 131.999 200.35 131.99C199.781 132.003 199.229 131.795 198.81 131.41C198.598 131.211 198.432 130.969 198.323 130.699C198.214 130.43 198.165 130.14 198.18 129.85C198.164 129.554 198.212 129.258 198.321 128.982C198.43 128.705 198.596 128.456 198.81 128.25C199.232 127.869 199.782 127.662 200.35 127.67C200.909 127.666 201.448 127.873 201.86 128.25C202.075 128.455 202.243 128.705 202.353 128.981C202.464 129.257 202.514 129.553 202.5 129.85V129.85ZM220.31 141.85C220.326 142.965 220.15 144.075 219.79 145.13C219.475 146.063 218.972 146.921 218.31 147.65C217.663 148.354 216.872 148.91 215.99 149.28C214.096 150.053 211.974 150.053 210.08 149.28C209.209 148.907 208.428 148.351 207.79 147.65C207.122 146.92 206.609 146.063 206.28 145.13C205.92 144.075 205.744 142.965 205.76 141.85C205.743 140.748 205.919 139.651 206.28 138.61C206.611 137.675 207.125 136.815 207.79 136.08C208.442 135.391 209.232 134.849 210.11 134.49C211.983 133.717 214.087 133.717 215.96 134.49C216.843 134.839 217.636 135.382 218.28 136.08C218.943 136.812 219.447 137.673 219.76 138.61C220.141 139.647 220.327 140.745 220.31 141.85V141.85ZM216.72 141.85C216.786 140.586 216.435 139.335 215.72 138.29C215.412 137.863 215.001 137.521 214.526 137.295C214.05 137.07 213.525 136.968 213 137C212.47 136.981 211.943 137.094 211.467 137.327C210.991 137.561 210.579 137.909 210.27 138.34C209.564 139.389 209.213 140.637 209.27 141.9C209.213 143.185 209.563 144.455 210.27 145.53C210.58 145.96 210.991 146.306 211.468 146.538C211.944 146.77 212.471 146.881 213 146.86C213.524 146.883 214.046 146.773 214.516 146.541C214.986 146.308 215.39 145.961 215.69 145.53C216.425 144.448 216.787 143.156 216.72 141.85V141.85Z"
      fill="#555454"></path>
  </g> <!-- BETA ICON -->
  <!-- <rect x="220" y="111" width="40" height="19" rx="5" fill="#54A4C1"/> <path d="M230.936 122.318C230.936 121.599 230.791 121.03 230.502 120.61C230.222 120.19 229.774 119.98 229.158 119.98C228.878 119.98 228.612 120.022 228.36 120.106C228.117 120.19 227.921 120.283 227.772 120.386V124.6C227.893 124.628 228.047 124.656 228.234 124.684C228.43 124.703 228.663 124.712 228.934 124.712C229.559 124.712 230.049 124.502 230.404 124.082C230.759 123.653 230.936 123.065 230.936 122.318ZM232.672 122.346C232.672 122.934 232.583 123.466 232.406 123.942C232.238 124.409 231.991 124.81 231.664 125.146C231.347 125.482 230.959 125.739 230.502 125.916C230.045 126.093 229.527 126.182 228.948 126.182C228.388 126.182 227.851 126.14 227.338 126.056C226.834 125.972 226.414 125.879 226.078 125.776V115.416L227.772 115.136V118.93C227.968 118.827 228.206 118.734 228.486 118.65C228.775 118.566 229.093 118.524 229.438 118.524C229.951 118.524 230.409 118.617 230.81 118.804C231.221 118.981 231.561 119.238 231.832 119.574C232.103 119.91 232.308 120.316 232.448 120.792C232.597 121.259 232.672 121.777 232.672 122.346ZM234.012 122.374C234.012 121.73 234.105 121.165 234.292 120.68C234.488 120.195 234.745 119.793 235.062 119.476C235.379 119.149 235.743 118.907 236.154 118.748C236.565 118.58 236.985 118.496 237.414 118.496C238.422 118.496 239.206 118.809 239.766 119.434C240.335 120.059 240.62 120.993 240.62 122.234C240.62 122.327 240.615 122.435 240.606 122.556C240.606 122.668 240.601 122.771 240.592 122.864H235.762C235.809 123.452 236.014 123.909 236.378 124.236C236.751 124.553 237.288 124.712 237.988 124.712C238.399 124.712 238.772 124.675 239.108 124.6C239.453 124.525 239.724 124.446 239.92 124.362L240.144 125.748C240.051 125.795 239.92 125.846 239.752 125.902C239.593 125.949 239.407 125.991 239.192 126.028C238.987 126.075 238.763 126.112 238.52 126.14C238.277 126.168 238.03 126.182 237.778 126.182C237.134 126.182 236.574 126.089 236.098 125.902C235.622 125.706 235.23 125.44 234.922 125.104C234.614 124.759 234.385 124.357 234.236 123.9C234.087 123.433 234.012 122.925 234.012 122.374ZM238.926 121.618C238.926 121.385 238.893 121.165 238.828 120.96C238.763 120.745 238.665 120.563 238.534 120.414C238.413 120.255 238.259 120.134 238.072 120.05C237.895 119.957 237.68 119.91 237.428 119.91C237.167 119.91 236.938 119.961 236.742 120.064C236.546 120.157 236.378 120.283 236.238 120.442C236.107 120.601 236.005 120.783 235.93 120.988C235.855 121.193 235.804 121.403 235.776 121.618H238.926ZM242.332 116.746L244.026 116.466V118.678H246.63V120.092H244.026V123.074C244.026 123.662 244.119 124.082 244.306 124.334C244.493 124.586 244.81 124.712 245.258 124.712C245.566 124.712 245.837 124.679 246.07 124.614C246.313 124.549 246.504 124.488 246.644 124.432L246.924 125.776C246.728 125.86 246.471 125.944 246.154 126.028C245.837 126.121 245.463 126.168 245.034 126.168C244.511 126.168 244.073 126.098 243.718 125.958C243.373 125.818 243.097 125.617 242.892 125.356C242.687 125.085 242.542 124.763 242.458 124.39C242.374 124.007 242.332 123.573 242.332 123.088V116.746ZM250.843 124.81C251.366 124.81 251.763 124.782 252.033 124.726V122.85C251.94 122.822 251.805 122.794 251.627 122.766C251.45 122.738 251.254 122.724 251.039 122.724C250.853 122.724 250.661 122.738 250.465 122.766C250.279 122.794 250.106 122.845 249.947 122.92C249.798 122.995 249.677 123.102 249.583 123.242C249.49 123.373 249.443 123.541 249.443 123.746C249.443 124.147 249.569 124.427 249.821 124.586C250.073 124.735 250.414 124.81 250.843 124.81ZM250.703 118.496C251.263 118.496 251.735 118.566 252.117 118.706C252.5 118.846 252.803 119.042 253.027 119.294C253.261 119.546 253.424 119.854 253.517 120.218C253.62 120.573 253.671 120.965 253.671 121.394V125.832C253.41 125.888 253.013 125.953 252.481 126.028C251.959 126.112 251.366 126.154 250.703 126.154C250.265 126.154 249.863 126.112 249.499 126.028C249.135 125.944 248.823 125.809 248.561 125.622C248.309 125.435 248.109 125.193 247.959 124.894C247.819 124.595 247.749 124.227 247.749 123.788C247.749 123.368 247.829 123.013 247.987 122.724C248.155 122.435 248.379 122.201 248.659 122.024C248.939 121.837 249.261 121.707 249.625 121.632C249.999 121.548 250.386 121.506 250.787 121.506C250.974 121.506 251.17 121.52 251.375 121.548C251.581 121.567 251.8 121.604 252.033 121.66V121.38C252.033 121.184 252.01 120.997 251.963 120.82C251.917 120.643 251.833 120.489 251.711 120.358C251.599 120.218 251.445 120.111 251.249 120.036C251.063 119.961 250.825 119.924 250.535 119.924C250.143 119.924 249.784 119.952 249.457 120.008C249.131 120.064 248.865 120.129 248.659 120.204L248.449 118.832C248.664 118.757 248.977 118.683 249.387 118.608C249.798 118.533 250.237 118.496 250.703 118.496Z" fill="white"/> -->
  <defs>
    <clipPath id="clip0">
      <rect width="220.31" height="149.89" fill="white"></rect>
    </clipPath>
  </defs>
</svg>