<svg xmlns="http://www.w3.org/2000/svg" viewBox="0 0 283.06 61.01"><defs><style>.cls-1{fill:#545554;}.cls-2,.cls-3{fill:#53a4c1;}.cls-2{stroke:#53a4c1;}</style></defs><title>Asset 3</title><g id="Layer_2" data-name="Layer 2"><g id="Layer_1-2" data-name="Layer 1"><path class="cls-1" d="M41.8,31.14a9.65,9.65,0,0,0-2.89-6.87,10,10,0,0,0-7-2.84H17.73a10,10,0,0,0-7,2.84,9.6,9.6,0,0,0,0,13.75,10,10,0,0,0,7,2.84H31.91a10,10,0,0,0,7-2.84A9.67,9.67,0,0,0,41.8,31.14ZM16.61,35.61a4.55,4.55,0,0,1-4.2-2.76,4.47,4.47,0,0,1,3.32-6.08,4.52,4.52,0,0,1,2.62.25,4.57,4.57,0,0,1,2,1.64,4.43,4.43,0,0,1,.77,2.48,4.37,4.37,0,0,1-1.33,3.16,4.47,4.47,0,0,1-1.48,1A4.69,4.69,0,0,1,16.61,35.61Zm16.41,0a4.55,4.55,0,0,1-4.2-2.76,4.47,4.47,0,0,1,3.32-6.08,4.52,4.52,0,0,1,2.62.25,4.57,4.57,0,0,1,2,1.64,4.43,4.43,0,0,1,.77,2.48,4.48,4.48,0,0,1-1.33,3.16,4.58,4.58,0,0,1-1.48,1A4.69,4.69,0,0,1,33,35.61Z"/><path class="cls-2" d="M41.83,48.18A23.48,23.48,0,0,0,44.47,17.1a24.16,24.16,0,0,0-8.72-7.26c.41-.69,1.28-2.17,2-3.5a3.05,3.05,0,0,0,.6.06,3,3,0,0,0,1.89-.66,3,3,0,0,0,1-1.68,2.87,2.87,0,0,0-.26-1.95A2.93,2.93,0,0,0,39.62.76a3.06,3.06,0,0,0-2-.16A3,3,0,0,0,36,1.71a2.93,2.93,0,0,0-.58,1.89,3,3,0,0,0,.77,1.82C35.22,7,34.3,8.6,34,9.07a24.65,24.65,0,0,0-18.38,0L13.48,5.42a2.91,2.91,0,0,0,.76-1.82A2.94,2.94,0,0,0,12,.6a3.06,3.06,0,0,0-2,.16A2.93,2.93,0,0,0,8.56,2.11a3,3,0,0,0-.26,2,3,3,0,0,0,1,1.67,3,3,0,0,0,1.89.66,2.88,2.88,0,0,0,.59-.06c.78,1.33,1.64,2.8,2.06,3.5a24.08,24.08,0,0,0-8.84,7.42,23.45,23.45,0,0,0-3.11,22,23.81,23.81,0,0,0,6.44,9.5l-1,3.62a1.65,1.65,0,0,0,0,1,1.63,1.63,0,0,0,.6.77,1.65,1.65,0,0,0,.91.33,1.71,1.71,0,0,0,.94-.24l3.39-2.06a24.65,24.65,0,0,0,18.82,1.77L39.23,60a2.23,2.23,0,0,0,2.5.27,2.16,2.16,0,0,0,.92-.9,2.13,2.13,0,0,0,.24-1.24Zm-1,10.16a.2.2,0,0,1,0,.07.1.1,0,0,1-.05,0,.1.1,0,0,1-.07,0,.11.11,0,0,1-.08,0l-8-6.83-.57.19a22.54,22.54,0,0,1-18.21-1.72l-.54-.31L9.72,51.9l1.06-3.83-.5-.42a21.82,21.82,0,0,1-7-11,21.51,21.51,0,0,1,.6-12.92,21.89,21.89,0,0,1,8-10.32A22.53,22.53,0,0,1,37,12.93a21.91,21.91,0,0,1,8.37,10A21.45,21.45,0,0,1,46.53,35.8,21.71,21.71,0,0,1,40,47.06l-.38.34Z"/><path class="cls-3" d="M72.81,33.87a6.11,6.11,0,0,0-.9-3.53A3.09,3.09,0,0,0,69.13,29a5.28,5.28,0,0,0-1.65.26,5.36,5.36,0,0,0-1.22.58V38.6a9.15,9.15,0,0,0,1,.17c.4,0,.88.06,1.45.06a3.76,3.76,0,0,0,3-1.3A5.61,5.61,0,0,0,72.81,33.87Zm3.6.06a9.61,9.61,0,0,1-.55,3.31,6.84,6.84,0,0,1-1.54,2.49,6.49,6.49,0,0,1-2.41,1.6,9,9,0,0,1-3.22.55,21,21,0,0,1-3.33-.26A23,23,0,0,1,62.75,41V19.58L66.26,19v7.86a7.49,7.49,0,0,1,1.48-.58,7.27,7.27,0,0,1,4.81.31,5.45,5.45,0,0,1,2.12,1.6,7.29,7.29,0,0,1,1.27,2.52A10.52,10.52,0,0,1,76.41,33.93Zm17.33,0a9.77,9.77,0,0,1-.52,3.28,7.15,7.15,0,0,1-1.48,2.52,6.63,6.63,0,0,1-2.32,1.63,7.84,7.84,0,0,1-5.92,0,6.8,6.8,0,0,1-2.29-1.63,7.5,7.5,0,0,1-1.5-2.52,9.77,9.77,0,0,1-.53-3.28,9.51,9.51,0,0,1,.53-3.25,7.71,7.71,0,0,1,1.5-2.52,6.63,6.63,0,0,1,2.32-1.59,7.69,7.69,0,0,1,5.86,0,6.29,6.29,0,0,1,2.32,1.59,7.33,7.33,0,0,1,1.48,2.52A9,9,0,0,1,93.74,33.9Zm-3.59,0a5.75,5.75,0,0,0-1-3.56A3.14,3.14,0,0,0,86.46,29a3.18,3.18,0,0,0-2.72,1.34,5.88,5.88,0,0,0-1,3.56,6.11,6.11,0,0,0,1,3.63,3.18,3.18,0,0,0,2.72,1.33,3.13,3.13,0,0,0,2.7-1.33A6,6,0,0,0,90.15,33.9Zm7-11.57,3.51-.58v4.58h5.4v2.93h-5.4v6.18a4.53,4.53,0,0,0,.58,2.61,2.31,2.31,0,0,0,2,.78,6.58,6.58,0,0,0,1.69-.2,11.13,11.13,0,0,0,1.18-.38l.58,2.79a12.93,12.93,0,0,1-1.59.52,8.4,8.4,0,0,1-2.32.29,7.51,7.51,0,0,1-2.73-.44,4.12,4.12,0,0,1-1.71-1.24,5.31,5.31,0,0,1-.9-2,13,13,0,0,1-.26-2.7Zm21.4,19.61a11.3,11.3,0,0,1-4.06-.7,8.09,8.09,0,0,1-3-2,9.23,9.23,0,0,1-1.91-3.31,13.54,13.54,0,0,1-.67-4.46,12.39,12.39,0,0,1,.75-4.47,9.72,9.72,0,0,1,2.12-3.28,8.78,8.78,0,0,1,3.13-2.05,10.5,10.5,0,0,1,3.86-.7,12,12,0,0,1,2.26.2,13.78,13.78,0,0,1,1.77.41A7.41,7.41,0,0,1,124,22l.69.38-1.07,3a8,8,0,0,0-2-.82,9.18,9.18,0,0,0-2.79-.4,6.3,6.3,0,0,0-2.43.46,5.2,5.2,0,0,0-2,1.34,6.19,6.19,0,0,0-1.28,2.26,9.79,9.79,0,0,0-.46,3.16,11.72,11.72,0,0,0,.34,2.93,6.89,6.89,0,0,0,1.14,2.32,5.39,5.39,0,0,0,1.91,1.51,6.86,6.86,0,0,0,2.78.52,10.94,10.94,0,0,0,3.16-.38,13.66,13.66,0,0,0,1.89-.75l1,3a5.37,5.37,0,0,1-1,.47c-.39.15-.85.31-1.39.46a14.1,14.1,0,0,1-1.83.32A14.93,14.93,0,0,1,118.58,41.94Zm22.74-8a9.77,9.77,0,0,1-.52,3.28,7.15,7.15,0,0,1-1.48,2.52A6.63,6.63,0,0,1,137,41.33a7.84,7.84,0,0,1-5.92,0,6.7,6.7,0,0,1-2.29-1.63,7.52,7.52,0,0,1-1.51-2.52,10,10,0,0,1-.52-3.28,9.76,9.76,0,0,1,.52-3.25,7.73,7.73,0,0,1,1.51-2.52,6.63,6.63,0,0,1,2.32-1.59,7.69,7.69,0,0,1,5.86,0,6.29,6.29,0,0,1,2.32,1.59,7.33,7.33,0,0,1,1.48,2.52A9,9,0,0,1,141.32,33.9Zm-3.6,0a5.75,5.75,0,0,0-1-3.56A3.14,3.14,0,0,0,134,29a3.18,3.18,0,0,0-2.72,1.34,5.88,5.88,0,0,0-1,3.56,6.11,6.11,0,0,0,1,3.63A3.18,3.18,0,0,0,134,38.86a3.13,3.13,0,0,0,2.7-1.33A6,6,0,0,0,137.72,33.9Zm15.86-.37A7.25,7.25,0,0,0,153,30.1,2.29,2.29,0,0,0,150.76,29a10,10,0,0,0-1.27.09l-1.05.14V41.5h-3.5V26.83a21,21,0,0,1,2.63-.55,21.72,21.72,0,0,1,3.48-.27,6.82,6.82,0,0,1,2.56.41,5.1,5.1,0,0,1,1.68,1.07,6.59,6.59,0,0,1,.81-.49,7.42,7.42,0,0,1,1.1-.46,8.64,8.64,0,0,1,1.28-.38,6.57,6.57,0,0,1,1.39-.15,6.89,6.89,0,0,1,2.9.53,4,4,0,0,1,1.8,1.42,5.27,5.27,0,0,1,.9,2.2,14.36,14.36,0,0,1,.26,2.81V41.5h-3.51v-8a7.44,7.44,0,0,0-.58-3.43A2.31,2.31,0,0,0,159.41,29a4.5,4.5,0,0,0-1.6.29,4.86,4.86,0,0,0-1.13.52,8.41,8.41,0,0,1,.32,1.54,15.79,15.79,0,0,1,.09,1.74V41.5h-3.51Zm25.09,0a7.13,7.13,0,0,0-.61-3.43,2.28,2.28,0,0,0-2.2-1.07,10,10,0,0,0-1.28.09l-1,.14V41.5H170V26.83a20.83,20.83,0,0,1,2.64-.55,21.54,21.54,0,0,1,3.48-.27,6.8,6.8,0,0,1,2.55.41,5,5,0,0,1,1.68,1.07,6.59,6.59,0,0,1,.81-.49,7.42,7.42,0,0,1,1.1-.46,9,9,0,0,1,1.28-.38A6.57,6.57,0,0,1,185,26a6.89,6.89,0,0,1,2.9.53,4,4,0,0,1,1.8,1.42,5.27,5.27,0,0,1,.9,2.2,14.36,14.36,0,0,1,.26,2.81V41.5h-3.51v-8a7.44,7.44,0,0,0-.58-3.43A2.31,2.31,0,0,0,184.5,29a4.54,4.54,0,0,0-1.6.29,4.86,4.86,0,0,0-1.13.52,7.65,7.65,0,0,1,.32,1.54,15.79,15.79,0,0,1,.09,1.74V41.5h-3.51Zm15.61.46a9.67,9.67,0,0,1,.58-3.51A7.26,7.26,0,0,1,196.45,28a6.28,6.28,0,0,1,2.26-1.51,6.86,6.86,0,0,1,2.61-.52,6.2,6.2,0,0,1,4.88,1.94c1.18,1.29,1.77,3.23,1.77,5.8,0,.19,0,.41,0,.67a6.05,6.05,0,0,1,0,.63h-10a4.1,4.1,0,0,0,1.28,2.85,5,5,0,0,0,3.33,1,11,11,0,0,0,2.32-.23,9.65,9.65,0,0,0,1.69-.49L207,41a8,8,0,0,1-.81.32c-.33.09-.72.18-1.16.26s-.89.17-1.39.23a13.13,13.13,0,0,1-1.54.09,9.6,9.6,0,0,1-3.48-.58,6.72,6.72,0,0,1-2.44-1.66,6.83,6.83,0,0,1-1.42-2.49A10.31,10.31,0,0,1,194.28,34Zm10.18-1.57a4.35,4.35,0,0,0-.21-1.36,2.87,2.87,0,0,0-.61-1.13,2.41,2.41,0,0,0-.95-.75,2.76,2.76,0,0,0-1.34-.29,3.06,3.06,0,0,0-1.42.31,3.38,3.38,0,0,0-1,.79,3.9,3.9,0,0,0-.64,1.13,6.5,6.5,0,0,0-.32,1.3Zm15.87-2.93a11.85,11.85,0,0,0-1.22-.29,8.3,8.3,0,0,0-1.77-.17,7.12,7.12,0,0,0-1.25.12,5.91,5.91,0,0,0-.89.2V41.5h-3.51V27.06a17.48,17.48,0,0,1,2.52-.7A15.42,15.42,0,0,1,217.6,26a6.44,6.44,0,0,1,.81.06,7.4,7.4,0,0,1,.93.12,6.51,6.51,0,0,1,.9.17,6.28,6.28,0,0,1,.7.18Zm2.21,4.44a9.39,9.39,0,0,1,.52-3.13,7.47,7.47,0,0,1,1.48-2.55,6.86,6.86,0,0,1,2.38-1.68,7.67,7.67,0,0,1,3.13-.61,10.63,10.63,0,0,1,4.06.78l-.75,2.87a7.86,7.86,0,0,0-1.39-.43,7.08,7.08,0,0,0-1.63-.18,3.83,3.83,0,0,0-3.13,1.31,5.45,5.45,0,0,0-1.07,3.62,5.85,5.85,0,0,0,1,3.6,4.08,4.08,0,0,0,3.42,1.3,9.48,9.48,0,0,0,1.77-.17,8,8,0,0,0,1.51-.44l.49,2.9a7.05,7.05,0,0,1-1.76.53,12.71,12.71,0,0,1-2.41.23,9.18,9.18,0,0,1-3.39-.58A6.37,6.37,0,0,1,223,37.12,10.6,10.6,0,0,1,222.54,33.93Zm13.68.06a9.67,9.67,0,0,1,.58-3.51A7.27,7.27,0,0,1,238.4,28a6.2,6.2,0,0,1,2.26-1.51,6.79,6.79,0,0,1,2.61-.52,6.18,6.18,0,0,1,4.87,1.94c1.18,1.29,1.77,3.23,1.77,5.8,0,.19,0,.41,0,.67a6.05,6.05,0,0,1,0,.63h-10a4.09,4.09,0,0,0,1.27,2.85,5.06,5.06,0,0,0,3.34,1,11.05,11.05,0,0,0,2.32-.23,9.77,9.77,0,0,0,1.68-.49l.46,2.87a8,8,0,0,1-.81.32c-.33.09-.72.18-1.16.26s-.89.17-1.39.23a13,13,0,0,1-1.54.09,9.68,9.68,0,0,1-3.48-.58,6.68,6.68,0,0,1-2.43-1.66,6.85,6.85,0,0,1-1.43-2.49A10.31,10.31,0,0,1,236.22,34Zm10.18-1.57a4.66,4.66,0,0,0-.2-1.36,3.15,3.15,0,0,0-.61-1.13,2.37,2.37,0,0,0-1-.75,2.75,2.75,0,0,0-1.33-.29,3,3,0,0,0-1.42.31,3.3,3.3,0,0,0-1,.79,3.9,3.9,0,0,0-.64,1.13,6.5,6.5,0,0,0-.32,1.3Z"/><path class="cls-1" d="M257.57,39.59a2.16,2.16,0,0,1-.69,1.65,2.42,2.42,0,0,1-3.28,0,2.38,2.38,0,0,1,0-3.31,2.37,2.37,0,0,1,3.28,0A2.17,2.17,0,0,1,257.57,39.59Zm7.3,1.91h-3.51V26.33h3.51Zm.38-19.6a2,2,0,0,1-.64,1.56,2.17,2.17,0,0,1-1.51.58,2.2,2.2,0,0,1-1.54-.58,2,2,0,0,1-.63-1.56,2.07,2.07,0,0,1,.63-1.6,2.2,2.2,0,0,1,1.54-.58,2.17,2.17,0,0,1,1.51.58A2.08,2.08,0,0,1,265.25,21.9Zm17.81,12a9.77,9.77,0,0,1-.52,3.28,7.15,7.15,0,0,1-1.48,2.52,6.63,6.63,0,0,1-2.32,1.63,7.82,7.82,0,0,1-5.91,0,6.61,6.61,0,0,1-2.29-1.63A7.36,7.36,0,0,1,269,37.18a9.77,9.77,0,0,1-.52-3.28,9.51,9.51,0,0,1,.52-3.25,7.56,7.56,0,0,1,1.51-2.52,6.54,6.54,0,0,1,2.32-1.59,7.67,7.67,0,0,1,5.85,0A6.2,6.2,0,0,1,281,28.13a7.33,7.33,0,0,1,1.48,2.52A9,9,0,0,1,283.06,33.9Zm-3.59,0a5.75,5.75,0,0,0-1-3.56,3.14,3.14,0,0,0-2.7-1.34,3.2,3.2,0,0,0-2.72,1.34,5.88,5.88,0,0,0-1,3.56,6.11,6.11,0,0,0,1,3.63,3.19,3.19,0,0,0,2.72,1.33,3.13,3.13,0,0,0,2.7-1.33A6,6,0,0,0,279.47,33.9Z"/></g></g></svg>